<?xml version="1.0" standalone="no"?>
<!DOCTYPE svg PUBLIC "-//W3C//DTD SVG 20010904//EN"
 "http://www.w3.org/TR/2001/REC-SVG-20010904/DTD/svg10.dtd">
<svg version="1.0" xmlns="http://www.w3.org/2000/svg"
 width="721.000000pt" height="725.000000pt" viewBox="0 0 721.000000 725.000000"
 preserveAspectRatio="xMidYMid meet">
<metadata>
Created by potrace 1.16, written by Peter Selinger 2001-2019
</metadata>
<g transform="translate(0.000000,725.000000) scale(0.100000,-0.100000)"
fill="#000000" stroke="none">
<path d="M3470 6603 c-368 -39 -694 -159 -980 -361 -119 -84 -365 -327 -446
-442 -234 -332 -355 -680 -371 -1075 -13 -312 57 -638 197 -920 73 -149 105
-194 46 -65 -81 177 -139 374 -167 570 -21 146 -16 425 10 575 99 571 429
1047 928 1343 539 320 1266 341 1812 51 505 -268 847 -699 986 -1243 47 -184
59 -308 52 -532 -8 -299 -65 -536 -188 -789 -22 -44 -32 -71 -23 -60 35 44
146 287 183 401 242 741 16 1551 -577 2070 -352 308 -841 488 -1305 482 -67 0
-138 -3 -157 -5z"/>
<path d="M4263 5894 l-313 -166 0 -36 0 -37 170 -95 169 -95 1 -800 0 -800
140 -59 c77 -32 143 -57 145 -54 3 3 4 523 3 1156 l-3 1151 -312 -165z"/>
<path d="M2733 4881 l-152 -86 -1 -57 c0 -32 3 -58 6 -58 4 0 71 37 150 82
140 80 144 83 144 115 0 18 1 33 3 33 1 0 150 -54 331 -119 l329 -119 153 86
c141 80 153 89 156 118 l3 31 140 -83 c77 -46 143 -83 148 -83 4 -1 7 11 7 27
-1 24 -16 36 -150 114 l-149 86 -150 -86 c-145 -84 -150 -88 -151 -119 0 -18
-2 -33 -5 -33 -2 0 -104 36 -227 81 -123 45 -270 98 -328 119 l-105 38 -152
-87z"/>
<path d="M2730 4595 l-145 -84 -3 -61 c-3 -56 -2 -60 15 -51 10 5 77 43 148
85 120 70 130 79 135 110 l5 33 324 -118 c179 -66 329 -119 333 -119 5 0 76
39 158 87 138 81 150 90 150 117 0 35 -8 38 163 -62 l137 -81 0 29 c0 26 -10
35 -94 84 -51 30 -120 69 -152 87 l-59 31 -145 -84 c-135 -78 -145 -86 -148
-116 -2 -18 -7 -32 -11 -32 -7 0 -541 191 -614 219 -16 6 -34 11 -40 11 -7 -1
-77 -39 -157 -85z"/>
<path d="M2790 4345 c-52 -30 -121 -69 -152 -87 l-58 -33 0 -57 c0 -32 2 -58
4 -58 2 0 69 37 148 83 134 78 143 85 146 116 3 28 6 31 25 25 12 -4 162 -57
332 -118 l311 -112 149 88 c132 77 151 91 155 117 l5 30 105 -60 c58 -33 124
-72 148 -85 l42 -25 0 29 c0 25 -13 35 -150 115 l-150 88 -150 -87 c-139 -82
-149 -90 -152 -120 l-3 -32 -315 114 c-173 63 -322 116 -330 119 -9 3 -58 -20
-110 -50z"/>
<path d="M2733 4031 l-152 -86 -1 -167 0 -167 63 28 62 28 3 115 3 115 84 48
c80 47 85 51 85 83 0 28 3 33 18 27 90 -36 379 -135 391 -135 9 1 27 7 41 15
l25 13 -25 10 c-24 9 -163 58 -355 126 l-90 32 -152 -85z"/>
<path d="M3772 4071 l-64 -39 56 -25 c67 -31 86 -27 86 19 l0 33 147 -84 c80
-47 148 -85 150 -85 1 0 3 12 3 28 -1 24 -15 35 -145 110 -79 45 -150 82 -157
82 -7 -1 -41 -18 -76 -39z"/>
<path d="M3480 3924 c-1067 -486 -2146 -980 -2225 -1020 -69 -34 -296 -103
1845 566 388 122 540 165 555 159 11 -4 268 -85 570 -178 303 -94 826 -256
1164 -360 338 -105 616 -190 617 -188 1 1 -88 44 -199 94 -111 50 -440 200
-732 333 -291 133 -627 286 -745 340 -118 54 -324 148 -458 209 -134 61 -244
111 -245 111 -1 0 -67 -30 -147 -66z"/>
<path d="M2830 3784 c0 -73 3 -95 13 -91 6 3 40 17 75 32 l62 28 0 63 0 64
-75 0 -75 0 0 -96z"/>
<path d="M3445 3485 c-93 -29 -273 -86 -400 -125 -300 -94 -471 -149 -465
-149 7 -1 1011 237 1027 243 6 3 118 -20 250 -50 131 -30 336 -78 456 -105
121 -28 221 -49 223 -47 3 4 -906 289 -916 288 -3 -1 -81 -25 -175 -55z"/>
<path d="M3565 3341 c-80 -20 -127 -66 -144 -139 l-9 -42 94 0 94 0 0 95 c0
52 -1 95 -2 94 -2 -1 -16 -4 -33 -8z"/>
<path d="M3660 3255 l0 -95 91 0 92 0 -6 40 c-9 71 -65 124 -149 144 l-28 6 0
-95z"/>
<path d="M3410 3000 l0 -90 95 0 95 0 0 90 0 90 -95 0 -95 0 0 -90z"/>
<path d="M3660 3000 l0 -90 93 0 92 0 0 90 0 90 -92 0 -93 0 0 -90z"/>
<path d="M4486 2249 c-20 -29 -6 -63 27 -67 20 -3 30 3 38 21 24 52 -33 92
-65 46z"/>
<path d="M4729 2249 c-22 -42 20 -87 57 -61 19 13 23 39 8 61 -19 27 -50 27
-65 0z"/>
<path d="M2430 2201 c0 -5 14 -12 30 -16 37 -8 44 -30 44 -139 l1 -79 -31 -11
c-98 -35 -147 -103 -147 -206 0 -82 26 -134 86 -174 60 -38 110 -50 212 -50
173 0 293 58 350 169 28 55 30 65 30 174 0 104 -3 122 -26 171 -42 88 -93 130
-194 156 -58 16 -355 19 -355 5z m286 -32 c125 -22 194 -97 213 -235 23 -161
-29 -287 -144 -347 -29 -15 -65 -22 -127 -25 l-88 -4 0 191 0 191 31 0 c20 0
43 -10 65 -29 41 -37 74 -32 74 10 0 35 -23 49 -82 49 -89 0 -88 0 -88 111 l0
99 42 0 c23 0 70 -5 104 -11z m-206 -412 c0 -113 4 -167 12 -175 24 -24 -17
-13 -66 18 -61 39 -90 100 -84 172 6 55 28 92 78 126 60 40 60 39 60 -141z"/>
<path d="M3202 1983 c-145 -71 -167 -360 -33 -450 61 -41 166 -26 221 32 31
33 17 49 -23 25 -45 -28 -115 -26 -157 3 -52 35 -70 79 -70 169 l0 78 130 0
130 0 0 33 c0 95 -107 155 -198 110z m111 -45 c9 -11 17 -31 17 -44 0 -24 -2
-24 -90 -24 -51 0 -90 4 -90 10 0 18 61 79 83 83 33 6 60 -2 80 -25z"/>
<path d="M3605 1985 c-46 -25 -65 -45 -93 -100 -23 -43 -27 -62 -27 -140 0
-108 25 -171 83 -210 64 -43 166 -29 222 30 31 33 17 49 -23 25 -19 -12 -50
-20 -77 -20 -98 0 -153 74 -148 197 l3 68 129 3 129 3 -6 46 c-7 64 -48 104
-114 110 -32 3 -58 -1 -78 -12z m99 -37 c14 -13 26 -34 28 -48 3 -25 3 -25
-89 -28 -58 -2 -93 1 -93 7 0 19 61 80 83 84 41 8 46 7 71 -15z"/>
<path d="M4120 1991 c-14 -5 -40 -15 -57 -24 -41 -21 -43 -21 -43 3 0 24 -7
24 -76 4 -52 -15 -72 -34 -36 -34 41 -1 43 -10 43 -195 1 -185 -1 -194 -43
-195 -10 0 -18 -7 -18 -15 0 -12 18 -15 100 -15 106 0 124 10 65 34 l-35 15 0
170 0 170 30 16 c16 8 49 18 73 21 37 5 48 2 73 -19 l29 -25 3 -170 3 -170
-30 -10 c-59 -21 -34 -32 69 -32 55 0 100 4 100 8 0 5 -15 15 -32 23 l-33 14
-6 165 c-5 130 -10 173 -24 202 -28 56 -88 79 -155 59z"/>
<path d="M4488 1974 c-55 -17 -61 -29 -18 -37 l30 -6 0 -367 0 -366 -28 3
c-36 4 -52 -7 -52 -36 0 -47 68 -38 93 12 37 71 41 107 46 461 7 395 14 362
-71 336z"/>
<path d="M4728 1973 c-51 -15 -64 -33 -23 -33 40 0 46 -26 43 -207 l-3 -168
-32 -10 c-18 -5 -33 -15 -33 -22 0 -10 25 -13 100 -13 82 0 100 3 100 15 0 8
-9 15 -19 15 -47 0 -51 18 -51 236 0 230 7 215 -82 187z"/>
</g>
</svg>
