<svg width="0" height="0" style="position:absolute"><symbol viewBox="0 0 422.88 343.499995" preserveAspectRatio="xMidYMid meet" id="analog" xmlns="http://www.w3.org/2000/svg"><defs><clipPath id="aid1"><path d="M 127.296875 75.375 L 347.570312 75.375 L 347.570312 267.527344 L 127.296875 267.527344 Z M 127.296875 75.375 " clip-rule="nonzero"/></clipPath><clipPath id="aid2"><path d="M 75.871094 104 L 263.335938 104 L 263.335938 268.03125 L 75.871094 268.03125 Z M 75.871094 104 " clip-rule="nonzero"/></clipPath><clipPath id="aid3"><path d="M 105 169.023438 L 315 169.023438 L 315 256.898438 L 105 256.898438 Z M 105 169.023438 " clip-rule="nonzero"/></clipPath></defs><g clip-path="url(#aid1)"><path d="M 237.433594 75.378906 L 347.570312 267.527344 L 127.296875 267.527344 L 237.433594 75.378906 " fill-opacity="1" fill-rule="nonzero"/></g><g clip-path="url(#aid2)"><path d="M 169.601562 104 L 263.332031 268.03125 L 75.871094 268.03125 L 169.601562 104 " fill-opacity="1" fill-rule="nonzero"/></g><path d="M 328.894531 218.96875 L 95.152344 218.96875 L 95.152344 216.402344 L 328.894531 216.402344 L 328.894531 218.96875 " fill-opacity="1" fill-rule="nonzero"/><g clip-path="url(#aid3)"><path d="M 292.785156 256.511719 C 291.871094 256.511719 291.011719 256.132812 290.292969 255.414062 C 286 251.101562 285.8125 233.566406 286.019531 207.304688 C 286.136719 192.953125 286.292969 173.296875 284.003906 171.746094 C 281.769531 172.671875 281.546875 188.910156 281.402344 199.660156 C 281.230469 212.167969 281.054688 225.109375 279.023438 231.699219 C 278.417969 233.652344 277.636719 235.441406 276.066406 235.296875 C 273.851562 235.101562 273.136719 231.605469 271.484375 217.808594 C 270.796875 212.078125 270.085938 206.15625 269.253906 203.863281 C 269.144531 203.574219 269.050781 203.34375 268.96875 203.164062 C 268.082031 205.167969 267.058594 210.675781 266.347656 214.5 C 265.363281 219.78125 264.433594 224.769531 263.269531 226.945312 C 262.371094 228.617188 260.945312 230.796875 258.953125 230.375 C 256.238281 229.804688 255.425781 224.332031 255.183594 221.121094 C 255.183594 194.105469 251.648438 190.960938 250.941406 190.605469 L 250.828125 190.691406 L 250.65625 190.652344 C 248.132812 191.753906 247.996094 200.515625 247.867188 208.988281 C 247.765625 215.203125 247.65625 222.246094 246.75 228.835938 C 245.574219 237.378906 244.152344 239.027344 242.382812 238.925781 C 238.308594 238.648438 238.191406 224.617188 238.191406 223.019531 C 238.191406 222.519531 238.203125 221.929688 238.21875 221.277344 C 238.296875 218.011719 238.4375 211.9375 236.429688 210.023438 C 236.164062 209.769531 235.789062 209.476562 235.496094 209.558594 C 234.066406 209.917969 232.582031 214.5625 232.089844 216.089844 C 231.933594 216.574219 231.808594 216.972656 231.703125 217.246094 C 231.621094 217.472656 231.515625 217.792969 231.390625 218.179688 C 230.308594 221.464844 229.078125 224.742188 226.976562 225.550781 C 226.199219 225.851562 225.386719 225.785156 224.625 225.355469 C 223.613281 224.78125 222.789062 223.609375 222.019531 221.660156 C 221.597656 220.582031 221.238281 219.488281 220.871094 218.390625 C 220.425781 217.050781 219.96875 215.664062 219.402344 214.347656 C 218.957031 213.324219 217.847656 212.863281 216.433594 213.113281 C 213.496094 213.636719 213.003906 216.605469 212.589844 221.074219 C 212.515625 221.851562 212.445312 222.613281 212.347656 223.332031 C 212.335938 223.542969 211.816406 230.101562 211.484375 232.1875 C 210.566406 237.90625 209.359375 240.160156 207.355469 239.996094 C 202.410156 239.574219 200.140625 217.882812 200.261719 208.71875 C 200.355469 201.722656 199.089844 199.167969 198.332031 198.761719 C 198.253906 198.726562 198.132812 198.660156 197.84375 198.863281 C 196.949219 199.46875 196.152344 201.355469 196.398438 203.335938 C 199.121094 224.902344 197.113281 249.601562 192.195312 255.164062 C 190.644531 256.914062 188.535156 256.890625 187.066406 255.414062 C 182.769531 251.101562 182.589844 233.566406 182.792969 207.304688 C 182.910156 192.953125 183.0625 173.296875 180.777344 171.746094 C 178.542969 172.671875 178.324219 188.910156 178.175781 199.660156 C 178.003906 212.167969 177.828125 225.109375 175.792969 231.699219 C 175.1875 233.652344 174.40625 235.441406 172.839844 235.296875 C 170.621094 235.101562 169.910156 231.605469 168.253906 217.808594 C 167.566406 212.078125 166.855469 206.15625 166.023438 203.863281 C 165.917969 203.574219 165.824219 203.34375 165.738281 203.164062 C 164.855469 205.167969 163.832031 210.675781 163.121094 214.5 C 162.136719 219.78125 161.207031 224.769531 160.039062 226.945312 C 159.140625 228.617188 157.714844 230.796875 155.726562 230.375 C 153.011719 229.804688 152.199219 224.332031 151.957031 221.121094 C 151.953125 194.105469 148.421875 190.960938 147.714844 190.605469 L 147.601562 190.691406 L 147.425781 190.652344 C 144.90625 191.753906 144.769531 200.515625 144.636719 208.988281 C 144.539062 215.203125 144.429688 222.246094 143.523438 228.835938 C 142.347656 237.378906 140.9375 239.042969 139.160156 238.925781 C 135.078125 238.648438 134.960938 224.617188 134.960938 223.019531 C 134.960938 222.519531 134.976562 221.929688 134.992188 221.277344 C 135.070312 218.011719 135.210938 211.9375 133.203125 210.023438 C 132.9375 209.769531 132.5625 209.476562 132.269531 209.558594 C 130.839844 209.917969 129.351562 214.5625 128.867188 216.089844 C 128.710938 216.570312 128.578125 216.972656 128.480469 217.246094 C 128.394531 217.46875 128.289062 217.789062 128.164062 218.175781 C 127.082031 221.460938 125.851562 224.742188 123.753906 225.550781 C 122.972656 225.851562 122.15625 225.785156 121.398438 225.355469 C 120.386719 224.78125 119.558594 223.609375 118.792969 221.660156 C 118.371094 220.582031 118.007812 219.488281 117.644531 218.390625 C 117.199219 217.050781 116.738281 215.664062 116.171875 214.347656 C 115.730469 213.324219 114.617188 212.863281 113.203125 213.113281 C 109.820312 213.714844 109.019531 217.910156 108.375 222.917969 L 108.261719 223.808594 L 105.703125 223.46875 L 105.824219 222.59375 C 106.382812 218.203125 107.234375 211.566406 112.753906 210.589844 C 115.351562 210.128906 117.621094 211.207031 118.535156 213.332031 C 119.148438 214.753906 119.628906 216.191406 120.089844 217.585938 C 120.433594 218.636719 120.785156 219.6875 121.191406 220.726562 C 121.90625 222.539062 122.460938 223.007812 122.667969 223.121094 C 123.960938 222.71875 125.28125 218.699219 125.71875 217.375 C 125.855469 216.949219 125.972656 216.597656 126.066406 216.347656 C 126.15625 216.101562 126.273438 215.742188 126.414062 215.308594 C 127.578125 211.667969 129.039062 207.726562 131.632812 207.070312 C 132.425781 206.867188 133.652344 206.894531 134.984375 208.167969 C 137.8125 210.867188 137.664062 217.167969 137.566406 221.339844 C 137.550781 221.964844 137.535156 222.535156 137.535156 223.019531 C 137.535156 229.675781 138.523438 234.328125 139.277344 235.925781 C 139.667969 235.109375 140.335938 233.132812 140.972656 228.488281 C 141.855469 222.050781 141.96875 215.089844 142.0625 208.949219 C 142.234375 198.082031 142.355469 190.203125 146.289062 188.351562 C 146.875 187.992188 147.847656 187.796875 148.875 188.316406 C 152.679688 190.230469 154.527344 200.929688 154.527344 221.023438 C 154.765625 224.128906 155.601562 227.398438 156.289062 227.867188 C 156.292969 227.796875 156.851562 227.453125 157.769531 225.734375 C 158.75 223.910156 159.726562 218.660156 160.585938 214.03125 C 162.488281 203.828125 163.351562 200.246094 165.601562 200.058594 C 167.316406 199.890625 168.109375 202.070312 168.441406 202.988281 C 169.378906 205.558594 170.074219 211.359375 170.808594 217.503906 C 171.382812 222.269531 172.199219 229.074219 173.03125 231.828125 C 173.121094 231.585938 173.222656 231.296875 173.332031 230.941406 C 175.257812 224.703125 175.433594 211.957031 175.601562 199.625 C 175.835938 182.496094 176.136719 171.882812 179.261719 169.667969 C 179.957031 169.175781 180.804688 169.054688 181.632812 169.332031 C 185.292969 170.546875 185.574219 181.277344 185.367188 207.328125 C 185.21875 226.21875 185.035156 249.730469 188.894531 253.605469 C 189.230469 253.945312 189.46875 253.945312 189.554688 253.945312 C 189.734375 253.945312 189.992188 253.773438 190.265625 253.464844 C 194.171875 249.046875 196.644531 225.847656 193.84375 203.660156 C 193.496094 200.898438 194.5625 197.996094 196.382812 196.746094 C 197.386719 196.054688 198.542969 195.964844 199.542969 196.5 C 201.820312 197.710938 202.925781 201.832031 202.835938 208.753906 C 202.675781 220.839844 205.578125 234.984375 207.472656 237.242188 C 207.773438 236.742188 208.367188 235.371094 208.9375 231.78125 C 209.257812 229.796875 209.785156 223.128906 209.792969 223.0625 C 209.886719 222.308594 209.957031 221.578125 210.023438 220.835938 C 210.414062 216.671875 210.894531 211.492188 215.980469 210.589844 C 218.574219 210.128906 220.84375 211.203125 221.761719 213.332031 C 222.375 214.753906 222.851562 216.191406 223.3125 217.585938 C 223.664062 218.636719 224.015625 219.6875 224.421875 220.726562 C 225.132812 222.539062 225.691406 223.007812 225.894531 223.121094 C 227.1875 222.71875 228.511719 218.699219 228.945312 217.378906 C 229.085938 216.953125 229.203125 216.597656 229.292969 216.347656 C 229.386719 216.105469 229.5 215.742188 229.636719 215.308594 C 230.804688 211.667969 232.265625 207.726562 234.863281 207.070312 C 235.648438 206.867188 236.878906 206.894531 238.210938 208.167969 C 241.039062 210.867188 240.890625 217.167969 240.796875 221.339844 C 240.777344 221.964844 240.761719 222.535156 240.761719 223.019531 C 240.761719 229.675781 241.75 234.328125 242.503906 235.925781 C 242.890625 235.109375 243.558594 233.132812 244.203125 228.488281 C 245.085938 222.050781 245.191406 215.089844 245.292969 208.949219 C 245.460938 198.082031 245.582031 190.203125 249.515625 188.351562 C 250.101562 187.992188 251.074219 187.796875 252.105469 188.316406 C 255.90625 190.230469 257.757812 200.929688 257.757812 221.023438 C 257.996094 224.128906 258.832031 227.398438 259.515625 227.867188 C 259.523438 227.796875 260.074219 227.453125 261 225.734375 C 261.980469 223.910156 262.953125 218.660156 263.816406 214.03125 C 265.710938 203.828125 266.578125 200.246094 268.828125 200.058594 C 270.546875 199.890625 271.339844 202.070312 271.671875 202.988281 C 272.605469 205.558594 273.300781 211.359375 274.042969 217.503906 C 274.609375 222.269531 275.425781 229.074219 276.261719 231.828125 C 276.347656 231.585938 276.449219 231.296875 276.558594 230.941406 C 278.484375 224.703125 278.65625 211.957031 278.828125 199.625 C 279.058594 182.496094 279.363281 171.882812 282.488281 169.667969 C 283.1875 169.175781 284.03125 169.054688 284.859375 169.332031 C 288.523438 170.546875 288.804688 181.277344 288.59375 207.328125 C 288.445312 226.21875 288.261719 249.730469 292.117188 253.605469 C 292.460938 253.945312 292.695312 253.945312 292.785156 253.945312 C 292.960938 253.945312 293.21875 253.773438 293.488281 253.464844 C 297.402344 249.046875 299.871094 225.847656 297.070312 203.660156 C 296.707031 200.769531 297.527344 197.855469 299.023438 196.734375 C 299.777344 196.164062 300.695312 196.046875 301.539062 196.402344 C 303.71875 197.332031 305.195312 201.316406 306.054688 208.589844 C 306.414062 211.636719 306.734375 214.929688 307.042969 218.179688 C 307.722656 225.273438 308.644531 234.832031 309.890625 236.933594 C 310.273438 236.445312 311.054688 235.125 312.214844 231.585938 L 314.664062 232.386719 C 312.863281 237.859375 311.453125 239.921875 309.617188 239.710938 C 306.761719 239.394531 305.9375 233.625 304.480469 218.425781 C 304.171875 215.191406 303.855469 211.917969 303.496094 208.886719 C 302.402344 199.609375 300.542969 198.769531 300.523438 198.761719 C 300.160156 198.945312 299.316406 200.875 299.628906 203.335938 C 302.34375 224.902344 300.34375 249.605469 295.421875 255.164062 C 294.628906 256.058594 293.738281 256.511719 292.785156 256.511719 " fill-opacity="1" fill-rule="nonzero"/></g></symbol><symbol viewBox="0 -960 960 960" id="bathtub" xmlns="http://www.w3.org/2000/svg"><path d="M280-600q-33 0-56.5-23.5T200-680q0-33 23.5-56.5T280-760q33 0 56.5 23.5T360-680q0 33-23.5 56.5T280-600ZM200-80q-17 0-28.5-11.5T160-120q-33 0-56.5-23.5T80-200v-240h120v-30q0-38 26-64t64-26q20 0 37 8t31 22l56 62q8 8 15.5 15t16.5 13h274v-326q0-14-10-24t-24-10q-6 0-11.5 2.5T664-790l-50 50q5 17 2 33.5T604-676L494-788q14-9 30-11.5t32 3.5l50-50q16-16 36.5-25t43.5-9q48 0 81 33t33 81v326h80v240q0 33-23.5 56.5T800-120q0 17-11.5 28.5T760-80H200Zm-40-120h640v-160H160v160Zm0 0h640-640Z"/></symbol><symbol viewBox="0 -960 960 960" id="bed" xmlns="http://www.w3.org/2000/svg"><path d="M80-200v-240q0-27 11-49t29-39v-112q0-50 35-85t85-35h160q23 0 43 8.5t37 23.5q17-15 37-23.5t43-8.5h160q50 0 85 35t35 85v112q18 17 29 39t11 49v240h-80v-80H160v80H80Zm440-360h240v-80q0-17-11.5-28.5T720-680H560q-17 0-28.5 11.5T520-640v80Zm-320 0h240v-80q0-17-11.5-28.5T400-680H240q-17 0-28.5 11.5T200-640v80Zm-40 200h640v-80q0-17-11.5-28.5T760-480H200q-17 0-28.5 11.5T160-440v80Zm640 0H160h640Z"/></symbol><symbol viewBox="0 0 721.000000 725.000000" preserveAspectRatio="xMidYMid meet" id="deenji" xmlns="http://www.w3.org/2000/svg"><metadata>Created by potrace 1.16, written by Peter Selinger 2001-2019</metadata><g transform="translate(0.000000,725.000000) scale(0.100000,-0.100000)"><path d="M3470 6603 c-368 -39 -694 -159 -980 -361 -119 -84 -365 -327 -446 -442 -234 -332 -355 -680 -371 -1075 -13 -312 57 -638 197 -920 73 -149 105 -194 46 -65 -81 177 -139 374 -167 570 -21 146 -16 425 10 575 99 571 429 1047 928 1343 539 320 1266 341 1812 51 505 -268 847 -699 986 -1243 47 -184 59 -308 52 -532 -8 -299 -65 -536 -188 -789 -22 -44 -32 -71 -23 -60 35 44 146 287 183 401 242 741 16 1551 -577 2070 -352 308 -841 488 -1305 482 -67 0 -138 -3 -157 -5z"/><path d="M4263 5894 l-313 -166 0 -36 0 -37 170 -95 169 -95 1 -800 0 -800 140 -59 c77 -32 143 -57 145 -54 3 3 4 523 3 1156 l-3 1151 -312 -165z"/><path d="M2733 4881 l-152 -86 -1 -57 c0 -32 3 -58 6 -58 4 0 71 37 150 82 140 80 144 83 144 115 0 18 1 33 3 33 1 0 150 -54 331 -119 l329 -119 153 86 c141 80 153 89 156 118 l3 31 140 -83 c77 -46 143 -83 148 -83 4 -1 7 11 7 27 -1 24 -16 36 -150 114 l-149 86 -150 -86 c-145 -84 -150 -88 -151 -119 0 -18 -2 -33 -5 -33 -2 0 -104 36 -227 81 -123 45 -270 98 -328 119 l-105 38 -152 -87z"/><path d="M2730 4595 l-145 -84 -3 -61 c-3 -56 -2 -60 15 -51 10 5 77 43 148 85 120 70 130 79 135 110 l5 33 324 -118 c179 -66 329 -119 333 -119 5 0 76 39 158 87 138 81 150 90 150 117 0 35 -8 38 163 -62 l137 -81 0 29 c0 26 -10 35 -94 84 -51 30 -120 69 -152 87 l-59 31 -145 -84 c-135 -78 -145 -86 -148 -116 -2 -18 -7 -32 -11 -32 -7 0 -541 191 -614 219 -16 6 -34 11 -40 11 -7 -1 -77 -39 -157 -85z"/><path d="M2790 4345 c-52 -30 -121 -69 -152 -87 l-58 -33 0 -57 c0 -32 2 -58 4 -58 2 0 69 37 148 83 134 78 143 85 146 116 3 28 6 31 25 25 12 -4 162 -57 332 -118 l311 -112 149 88 c132 77 151 91 155 117 l5 30 105 -60 c58 -33 124 -72 148 -85 l42 -25 0 29 c0 25 -13 35 -150 115 l-150 88 -150 -87 c-139 -82 -149 -90 -152 -120 l-3 -32 -315 114 c-173 63 -322 116 -330 119 -9 3 -58 -20 -110 -50z"/><path d="M2733 4031 l-152 -86 -1 -167 0 -167 63 28 62 28 3 115 3 115 84 48 c80 47 85 51 85 83 0 28 3 33 18 27 90 -36 379 -135 391 -135 9 1 27 7 41 15 l25 13 -25 10 c-24 9 -163 58 -355 126 l-90 32 -152 -85z"/><path d="M3772 4071 l-64 -39 56 -25 c67 -31 86 -27 86 19 l0 33 147 -84 c80 -47 148 -85 150 -85 1 0 3 12 3 28 -1 24 -15 35 -145 110 -79 45 -150 82 -157 82 -7 -1 -41 -18 -76 -39z"/><path d="M3480 3924 c-1067 -486 -2146 -980 -2225 -1020 -69 -34 -296 -103 1845 566 388 122 540 165 555 159 11 -4 268 -85 570 -178 303 -94 826 -256 1164 -360 338 -105 616 -190 617 -188 1 1 -88 44 -199 94 -111 50 -440 200 -732 333 -291 133 -627 286 -745 340 -118 54 -324 148 -458 209 -134 61 -244 111 -245 111 -1 0 -67 -30 -147 -66z"/><path d="M2830 3784 c0 -73 3 -95 13 -91 6 3 40 17 75 32 l62 28 0 63 0 64 -75 0 -75 0 0 -96z"/><path d="M3445 3485 c-93 -29 -273 -86 -400 -125 -300 -94 -471 -149 -465 -149 7 -1 1011 237 1027 243 6 3 118 -20 250 -50 131 -30 336 -78 456 -105 121 -28 221 -49 223 -47 3 4 -906 289 -916 288 -3 -1 -81 -25 -175 -55z"/><path d="M3565 3341 c-80 -20 -127 -66 -144 -139 l-9 -42 94 0 94 0 0 95 c0 52 -1 95 -2 94 -2 -1 -16 -4 -33 -8z"/><path d="M3660 3255 l0 -95 91 0 92 0 -6 40 c-9 71 -65 124 -149 144 l-28 6 0 -95z"/><path d="M3410 3000 l0 -90 95 0 95 0 0 90 0 90 -95 0 -95 0 0 -90z"/><path d="M3660 3000 l0 -90 93 0 92 0 0 90 0 90 -92 0 -93 0 0 -90z"/><path d="M4486 2249 c-20 -29 -6 -63 27 -67 20 -3 30 3 38 21 24 52 -33 92 -65 46z"/><path d="M4729 2249 c-22 -42 20 -87 57 -61 19 13 23 39 8 61 -19 27 -50 27 -65 0z"/><path d="M2430 2201 c0 -5 14 -12 30 -16 37 -8 44 -30 44 -139 l1 -79 -31 -11 c-98 -35 -147 -103 -147 -206 0 -82 26 -134 86 -174 60 -38 110 -50 212 -50 173 0 293 58 350 169 28 55 30 65 30 174 0 104 -3 122 -26 171 -42 88 -93 130 -194 156 -58 16 -355 19 -355 5z m286 -32 c125 -22 194 -97 213 -235 23 -161 -29 -287 -144 -347 -29 -15 -65 -22 -127 -25 l-88 -4 0 191 0 191 31 0 c20 0 43 -10 65 -29 41 -37 74 -32 74 10 0 35 -23 49 -82 49 -89 0 -88 0 -88 111 l0 99 42 0 c23 0 70 -5 104 -11z m-206 -412 c0 -113 4 -167 12 -175 24 -24 -17 -13 -66 18 -61 39 -90 100 -84 172 6 55 28 92 78 126 60 40 60 39 60 -141z"/><path d="M3202 1983 c-145 -71 -167 -360 -33 -450 61 -41 166 -26 221 32 31 33 17 49 -23 25 -45 -28 -115 -26 -157 3 -52 35 -70 79 -70 169 l0 78 130 0 130 0 0 33 c0 95 -107 155 -198 110z m111 -45 c9 -11 17 -31 17 -44 0 -24 -2 -24 -90 -24 -51 0 -90 4 -90 10 0 18 61 79 83 83 33 6 60 -2 80 -25z"/><path d="M3605 1985 c-46 -25 -65 -45 -93 -100 -23 -43 -27 -62 -27 -140 0 -108 25 -171 83 -210 64 -43 166 -29 222 30 31 33 17 49 -23 25 -19 -12 -50 -20 -77 -20 -98 0 -153 74 -148 197 l3 68 129 3 129 3 -6 46 c-7 64 -48 104 -114 110 -32 3 -58 -1 -78 -12z m99 -37 c14 -13 26 -34 28 -48 3 -25 3 -25 -89 -28 -58 -2 -93 1 -93 7 0 19 61 80 83 84 41 8 46 7 71 -15z"/><path d="M4120 1991 c-14 -5 -40 -15 -57 -24 -41 -21 -43 -21 -43 3 0 24 -7 24 -76 4 -52 -15 -72 -34 -36 -34 41 -1 43 -10 43 -195 1 -185 -1 -194 -43 -195 -10 0 -18 -7 -18 -15 0 -12 18 -15 100 -15 106 0 124 10 65 34 l-35 15 0 170 0 170 30 16 c16 8 49 18 73 21 37 5 48 2 73 -19 l29 -25 3 -170 3 -170 -30 -10 c-59 -21 -34 -32 69 -32 55 0 100 4 100 8 0 5 -15 15 -32 23 l-33 14 -6 165 c-5 130 -10 173 -24 202 -28 56 -88 79 -155 59z"/><path d="M4488 1974 c-55 -17 -61 -29 -18 -37 l30 -6 0 -367 0 -366 -28 3 c-36 4 -52 -7 -52 -36 0 -47 68 -38 93 12 37 71 41 107 46 461 7 395 14 362 -71 336z"/><path d="M4728 1973 c-51 -15 -64 -33 -23 -33 40 0 46 -26 43 -207 l-3 -168 -32 -10 c-18 -5 -33 -15 -33 -22 0 -10 25 -13 100 -13 82 0 100 3 100 15 0 8 -9 15 -19 15 -47 0 -51 18 -51 236 0 230 7 215 -82 187z"/></g></symbol><symbol viewBox="0 -960 960 960" id="foundation" xmlns="http://www.w3.org/2000/svg"><path d="M200-120v-160h-80v-80h80v-166L88-440l-48-64 440-336 440 336-48 64-112-86v166h80v80h-80v160h-80v-160H520v160h-80v-160H280v160h-80Zm80-240h160v-349L280-587v227Zm240 0h160v-227L520-709v349Z"/></symbol><symbol viewBox="0 -960 960 960" id="menu_open" xmlns="http://www.w3.org/2000/svg"><path d="M120-240v-80h520v80H120Zm664-40L584-480l200-200 56 56-144 144 144 144-56 56ZM120-440v-80h400v80H120Zm0-200v-80h520v80H120Z"/></symbol><symbol viewBox="0 -960 960 960" id="menu_web" xmlns="http://www.w3.org/2000/svg"><path d="M120-240v-80h720v80H120Zm0-200v-80h720v80H120Zm0-200v-80h720v80H120Z"/></symbol><symbol viewBox="0 -960 960 960" id="square_foot" xmlns="http://www.w3.org/2000/svg"><path d="M208-120q-37 0-62.5-25.5T120-208v-548q0-29 27-40.5t47 8.5l90 90-54 54 28 28 54-54 104 104-54 54 28 28 54-54 104 104-54 54 28 28 54-54 104 104-54 54 28 28 54-54 80 80q20 20 8.5 47T756-120H208Zm32-120h332L240-572v332Z"/></symbol><symbol viewBox="0 0 1024.000000 1024.000000" preserveAspectRatio="xMidYMid meet" id="swans" xmlns="http://www.w3.org/2000/svg"><metadata>Created by potrace 1.16, written by Peter Selinger 2001-2019</metadata><!--<g transform="translate(0.000000,1024.000000) scale(0.100000,-0.100000)"--><!--fill="#004c8d" stroke="none">--><g transform="translate(0.000000,1024.000000) scale(0.100000,-0.100000)"><path d="M3814 7639 c-28 -5 -89 -20 -135 -35 -163 -51 -281 -124 -409 -253 -239 -241 -355 -567 -337 -946 10 -201 47 -363 127 -566 105 -265 261 -489 578 -832 393 -425 537 -648 592 -917 19 -89 21 -127 17 -255 -6 -173 -19 -229 -82 -362 -163 -337 -520 -578 -969 -655 -105 -17 -150 -19 -336 -15 -231 5 -356 24 -520 80 -41 14 -76 24 -78 22 -2 -1 32 -25 75 -52 297 -191 596 -266 1108 -279 568 -15 1005 57 1259 207 39 24 102 75 141 114 172 171 246 394 231 696 -8 160 -28 268 -73 389 -117 313 -282 545 -706 994 -454 479 -599 661 -721 905 -153 306 -197 608 -127 866 68 246 212 433 446 581 27 17 26 15 -13 -32 -55 -65 -83 -139 -89 -234 -6 -84 12 -168 50 -230 62 -102 184 -197 300 -232 61 -18 76 -19 122 -9 104 23 152 118 128 257 -11 61 -59 176 -100 234 -9 14 30 -21 88 -77 87 -84 111 -102 144 -108 104 -17 185 -75 200 -144 11 -52 23 -44 39 28 32 139 12 288 -56 431 -34 72 -55 100 -137 180 -103 102 -179 152 -304 201 -129 49 -322 70 -453 48z"/><path d="M6139 7640 c-144 -18 -328 -98 -436 -189 -184 -154 -272 -346 -260 -566 5 -103 21 -175 37 -175 6 0 10 7 10 17 0 9 11 36 25 59 29 50 86 87 160 105 70 17 92 32 157 109 32 38 72 79 90 91 l33 24 -32 -40 c-97 -122 -130 -304 -75 -411 11 -22 30 -45 41 -51 140 -85 398 43 499 246 35 72 37 79 36 175 0 122 -23 189 -87 262 l-42 48 40 -23 c102 -61 223 -172 291 -267 111 -155 164 -318 171 -529 8 -225 -30 -387 -148 -632 -122 -255 -265 -435 -747 -946 -307 -325 -445 -498 -564 -705 -142 -245 -198 -451 -198 -724 0 -210 38 -360 125 -494 58 -89 188 -212 275 -261 140 -79 352 -134 640 -169 205 -25 721 -25 905 -1 269 36 472 94 660 190 107 54 239 135 201 123 -231 -75 -360 -97 -598 -103 -238 -6 -335 5 -528 64 -156 47 -256 92 -375 170 -295 193 -464 472 -482 794 -20 344 129 632 577 1125 314 345 442 516 556 742 59 119 134 333 158 455 85 416 0 828 -229 1114 -219 274 -555 416 -886 373z"/><path d="M4522 6734 c-12 -8 -33 -37 -46 -63 -23 -44 -88 -113 -115 -122 -7 -3 10 -28 41 -60 29 -30 121 -127 203 -214 193 -204 255 -245 300 -195 29 32 12 78 -69 188 -98 134 -117 182 -117 285 0 89 -14 124 -70 172 -36 29 -92 34 -127 9z"/><path d="M5590 6737 c-9 -7 -32 -33 -53 -58 -35 -44 -37 -49 -37 -122 0 -102 -22 -157 -115 -286 -41 -58 -77 -119 -81 -137 -7 -40 10 -74 38 -74 68 0 169 87 401 347 l117 132 -49 49 c-27 27 -59 68 -70 90 -11 22 -31 48 -43 56 -27 19 -87 20 -108 3z"/><path d="M1866 6498 c-100 -182 -155 -410 -142 -594 17 -251 136 -486 355 -704 171 -170 330 -272 766 -492 362 -182 533 -281 690 -397 127 -94 295 -248 350 -320 21 -28 40 -49 42 -48 9 9 -57 187 -102 277 -173 342 -403 559 -895 845 -579 336 -911 673 -1016 1032 -33 113 -43 296 -22 396 8 37 13 67 12 67 -2 0 -19 -28 -38 -62z"/><path d="M8322 6513 c18 -61 14 -267 -6 -358 -37 -161 -102 -296 -215 -442 -183 -237 -402 -409 -861 -676 -213 -124 -322 -200 -447 -310 -231 -206 -396 -445 -477 -696 -33 -101 -33 -114 0 -65 34 51 171 191 254 258 196 161 327 240 761 459 475 239 632 341 819 527 124 123 206 236 264 361 54 117 67 179 73 339 6 166 -8 264 -58 408 -27 75 -103 232 -114 232 -2 0 2 -17 7 -37z"/><path d="M1535 6080 c-82 -158 -125 -338 -125 -529 0 -134 10 -203 47 -316 55 -169 135 -296 270 -425 259 -250 555 -380 1178 -520 127 -28 257 -58 290 -66 287 -72 539 -193 700 -336 57 -50 58 -51 28 -13 -50 64 -192 197 -274 257 -136 101 -329 203 -774 410 -492 229 -707 367 -925 594 -124 129 -187 215 -254 344 -97 187 -132 342 -124 550 2 66 3 120 2 120 -1 0 -18 -32 -39 -70z"/><path d="M8636 6089 c3 -35 6 -75 8 -88 2 -13 0 -72 -5 -132 -23 -285 -181 -570 -454 -818 -210 -191 -433 -324 -930 -554 -368 -170 -557 -271 -686 -364 -101 -72 -236 -202 -279 -268 l-33 -50 50 52 c60 62 222 170 325 218 165 76 287 111 873 251 348 83 669 218 855 358 297 223 444 504 444 846 0 138 -14 235 -51 355 -23 74 -93 229 -113 249 -5 4 -6 -20 -4 -55z"/><path d="M1354 4775 c3 -66 12 -152 20 -191 70 -329 312 -624 633 -770 208 -95 453 -157 695 -176 236 -18 662 9 933 59 l90 17 -95 18 c-761 146 -1137 257 -1501 445 -334 171 -607 413 -751 665 l-30 53 6 -120z"/><path d="M8837 4844 c-79 -166 -301 -394 -532 -546 -147 -97 -394 -219 -577 -287 -160 -59 -492 -152 -651 -182 -62 -11 -168 -34 -237 -49 -69 -16 -178 -37 -242 -46 -65 -10 -116 -20 -113 -22 7 -7 235 -40 400 -58 221 -23 626 -24 775 0 451 71 787 241 980 498 34 44 78 115 99 157 75 149 124 355 119 497 l-3 77 -18 -39z"/><path d="M1586 3898 c148 -350 411 -602 742 -711 149 -50 242 -66 400 -74 317 -14 646 52 892 178 91 46 185 107 177 115 -2 2 -19 -1 -38 -6 -69 -20 -349 -43 -529 -43 -276 0 -397 22 -775 144 -121 39 -263 84 -315 101 -192 61 -395 183 -527 316 l-63 63 36 -83z"/><path d="M8563 3880 c-46 -44 -117 -101 -160 -129 -92 -61 -253 -130 -383 -166 -52 -14 -142 -42 -200 -61 -502 -171 -718 -198 -1177 -149 -73 8 -151 19 -175 24 -23 6 -44 8 -46 6 -2 -2 23 -21 55 -43 273 -185 683 -279 1063 -243 479 46 789 236 1009 619 42 71 105 211 99 217 -2 2 -40 -32 -85 -75z"/><path d="M4710 2514 c-25 -2 -130 -11 -235 -19 -104 -8 -302 -24 -440 -36 -190 -16 -341 -21 -627 -22 -207 -1 -375 -3 -373 -5 10 -10 319 -53 453 -63 154 -11 297 -11 1306 8 214 3 649 1 1030 -7 721 -13 928 -8 1156 31 69 11 130 24 137 27 6 4 -142 8 -330 8 -304 1 -391 6 -777 39 -398 34 -470 37 -845 40 -225 1 -430 1 -455 -1z"/><path d="M4560 2260 c-129 -4 -407 -11 -618 -15 -210 -5 -380 -10 -378 -13 9 -9 280 -42 466 -56 612 -49 1577 -49 2160 -1 171 14 448 49 456 58 3 2 -136 7 -308 11 -172 3 -457 11 -633 16 -353 10 -785 10 -1145 0z"/><path d="M4640 2000 c-129 -4 -264 -8 -300 -9 -92 -3 -52 -16 95 -30 248 -25 518 -61 596 -81 l81 -21 82 20 c112 28 237 47 466 71 271 28 289 33 155 41 -193 11 -932 17 -1175 9z"/></g></symbol><symbol viewBox="0 0 24 24" id="swans-mobile" xmlns="http://www.w3.org/2000/svg"><path d="M12 2C8.13 2 5 5.13 5 9c0 1.66.67 3.16 1.76 4.24L12 21l5.24-7.76C18.33 12.16 19 10.66 19 9c0-3.87-3.13-7-7-7z"/></symbol></svg>