<?xml version="1.0" standalone="no"?>
<!DOCTYPE svg PUBLIC "-//W3C//DTD SVG 20010904//EN"
 "http://www.w3.org/TR/2001/REC-SVG-20010904/DTD/svg10.dtd">
<svg version="1.0" xmlns="http://www.w3.org/2000/svg"
 width="1024.000000pt" height="1024.000000pt" viewBox="0 0 1024.000000 1024.000000"
 preserveAspectRatio="xMidYMid meet">
<metadata>
Created by potrace 1.16, written by Peter Selinger 2001-2019
</metadata>
<g transform="translate(0.000000,1024.000000) scale(0.100000,-0.100000)"
fill="#000000" stroke="none">
<path d="M3814 7639 c-28 -5 -89 -20 -135 -35 -163 -51 -281 -124 -409 -253
-239 -241 -355 -567 -337 -946 10 -201 47 -363 127 -566 105 -265 261 -489
578 -832 393 -425 537 -648 592 -917 19 -89 21 -127 17 -255 -6 -173 -19 -229
-82 -362 -163 -337 -520 -578 -969 -655 -105 -17 -150 -19 -336 -15 -231 5
-356 24 -520 80 -41 14 -76 24 -78 22 -2 -1 32 -25 75 -52 297 -191 596 -266
1108 -279 568 -15 1005 57 1259 207 39 24 102 75 141 114 172 171 246 394 231
696 -8 160 -28 268 -73 389 -117 313 -282 545 -706 994 -454 479 -599 661
-721 905 -153 306 -197 608 -127 866 68 246 212 433 446 581 27 17 26 15 -13
-32 -55 -65 -83 -139 -89 -234 -6 -84 12 -168 50 -230 62 -102 184 -197 300
-232 61 -18 76 -19 122 -9 104 23 152 118 128 257 -11 61 -59 176 -100 234 -9
14 30 -21 88 -77 87 -84 111 -102 144 -108 104 -17 185 -75 200 -144 11 -52
23 -44 39 28 32 139 12 288 -56 431 -34 72 -55 100 -137 180 -103 102 -179
152 -304 201 -129 49 -322 70 -453 48z"/>
<path d="M6139 7640 c-144 -18 -328 -98 -436 -189 -184 -154 -272 -346 -260
-566 5 -103 21 -175 37 -175 6 0 10 7 10 17 0 9 11 36 25 59 29 50 86 87 160
105 70 17 92 32 157 109 32 38 72 79 90 91 l33 24 -32 -40 c-97 -122 -130
-304 -75 -411 11 -22 30 -45 41 -51 140 -85 398 43 499 246 35 72 37 79 36
175 0 122 -23 189 -87 262 l-42 48 40 -23 c102 -61 223 -172 291 -267 111
-155 164 -318 171 -529 8 -225 -30 -387 -148 -632 -122 -255 -265 -435 -747
-946 -307 -325 -445 -498 -564 -705 -142 -245 -198 -451 -198 -724 0 -210 38
-360 125 -494 58 -89 188 -212 275 -261 140 -79 352 -134 640 -169 205 -25
721 -25 905 -1 269 36 472 94 660 190 107 54 239 135 201 123 -231 -75 -360
-97 -598 -103 -238 -6 -335 5 -528 64 -156 47 -256 92 -375 170 -295 193 -464
472 -482 794 -20 344 129 632 577 1125 314 345 442 516 556 742 59 119 134
333 158 455 85 416 0 828 -229 1114 -219 274 -555 416 -886 373z"/>
<path d="M4522 6734 c-12 -8 -33 -37 -46 -63 -23 -44 -88 -113 -115 -122 -7
-3 10 -28 41 -60 29 -30 121 -127 203 -214 193 -204 255 -245 300 -195 29 32
12 78 -69 188 -98 134 -117 182 -117 285 0 89 -14 124 -70 172 -36 29 -92 34
-127 9z"/>
<path d="M5590 6737 c-9 -7 -32 -33 -53 -58 -35 -44 -37 -49 -37 -122 0 -102
-22 -157 -115 -286 -41 -58 -77 -119 -81 -137 -7 -40 10 -74 38 -74 68 0 169
87 401 347 l117 132 -49 49 c-27 27 -59 68 -70 90 -11 22 -31 48 -43 56 -27
19 -87 20 -108 3z"/>
<path d="M1866 6498 c-100 -182 -155 -410 -142 -594 17 -251 136 -486 355
-704 171 -170 330 -272 766 -492 362 -182 533 -281 690 -397 127 -94 295 -248
350 -320 21 -28 40 -49 42 -48 9 9 -57 187 -102 277 -173 342 -403 559 -895
845 -579 336 -911 673 -1016 1032 -33 113 -43 296 -22 396 8 37 13 67 12 67
-2 0 -19 -28 -38 -62z"/>
<path d="M8322 6513 c18 -61 14 -267 -6 -358 -37 -161 -102 -296 -215 -442
-183 -237 -402 -409 -861 -676 -213 -124 -322 -200 -447 -310 -231 -206 -396
-445 -477 -696 -33 -101 -33 -114 0 -65 34 51 171 191 254 258 196 161 327
240 761 459 475 239 632 341 819 527 124 123 206 236 264 361 54 117 67 179
73 339 6 166 -8 264 -58 408 -27 75 -103 232 -114 232 -2 0 2 -17 7 -37z"/>
<path d="M1535 6080 c-82 -158 -125 -338 -125 -529 0 -134 10 -203 47 -316 55
-169 135 -296 270 -425 259 -250 555 -380 1178 -520 127 -28 257 -58 290 -66
287 -72 539 -193 700 -336 57 -50 58 -51 28 -13 -50 64 -192 197 -274 257
-136 101 -329 203 -774 410 -492 229 -707 367 -925 594 -124 129 -187 215
-254 344 -97 187 -132 342 -124 550 2 66 3 120 2 120 -1 0 -18 -32 -39 -70z"/>
<path d="M8636 6089 c3 -35 6 -75 8 -88 2 -13 0 -72 -5 -132 -23 -285 -181
-570 -454 -818 -210 -191 -433 -324 -930 -554 -368 -170 -557 -271 -686 -364
-101 -72 -236 -202 -279 -268 l-33 -50 50 52 c60 62 222 170 325 218 165 76
287 111 873 251 348 83 669 218 855 358 297 223 444 504 444 846 0 138 -14
235 -51 355 -23 74 -93 229 -113 249 -5 4 -6 -20 -4 -55z"/>
<path d="M1354 4775 c3 -66 12 -152 20 -191 70 -329 312 -624 633 -770 208
-95 453 -157 695 -176 236 -18 662 9 933 59 l90 17 -95 18 c-761 146 -1137
257 -1501 445 -334 171 -607 413 -751 665 l-30 53 6 -120z"/>
<path d="M8837 4844 c-79 -166 -301 -394 -532 -546 -147 -97 -394 -219 -577
-287 -160 -59 -492 -152 -651 -182 -62 -11 -168 -34 -237 -49 -69 -16 -178
-37 -242 -46 -65 -10 -116 -20 -113 -22 7 -7 235 -40 400 -58 221 -23 626 -24
775 0 451 71 787 241 980 498 34 44 78 115 99 157 75 149 124 355 119 497 l-3
77 -18 -39z"/>
<path d="M1586 3898 c148 -350 411 -602 742 -711 149 -50 242 -66 400 -74 317
-14 646 52 892 178 91 46 185 107 177 115 -2 2 -19 -1 -38 -6 -69 -20 -349
-43 -529 -43 -276 0 -397 22 -775 144 -121 39 -263 84 -315 101 -192 61 -395
183 -527 316 l-63 63 36 -83z"/>
<path d="M8563 3880 c-46 -44 -117 -101 -160 -129 -92 -61 -253 -130 -383
-166 -52 -14 -142 -42 -200 -61 -502 -171 -718 -198 -1177 -149 -73 8 -151 19
-175 24 -23 6 -44 8 -46 6 -2 -2 23 -21 55 -43 273 -185 683 -279 1063 -243
479 46 789 236 1009 619 42 71 105 211 99 217 -2 2 -40 -32 -85 -75z"/>
<path d="M4710 2514 c-25 -2 -130 -11 -235 -19 -104 -8 -302 -24 -440 -36
-190 -16 -341 -21 -627 -22 -207 -1 -375 -3 -373 -5 10 -10 319 -53 453 -63
154 -11 297 -11 1306 8 214 3 649 1 1030 -7 721 -13 928 -8 1156 31 69 11 130
24 137 27 6 4 -142 8 -330 8 -304 1 -391 6 -777 39 -398 34 -470 37 -845 40
-225 1 -430 1 -455 -1z"/>
<path d="M4560 2260 c-129 -4 -407 -11 -618 -15 -210 -5 -380 -10 -378 -13 9
-9 280 -42 466 -56 612 -49 1577 -49 2160 -1 171 14 448 49 456 58 3 2 -136 7
-308 11 -172 3 -457 11 -633 16 -353 10 -785 10 -1145 0z"/>
<path d="M4640 2000 c-129 -4 -264 -8 -300 -9 -92 -3 -52 -16 95 -30 248 -25
518 -61 596 -81 l81 -21 82 20 c112 28 237 47 466 71 271 28 289 33 155 41
-193 11 -932 17 -1175 9z"/>
</g>
</svg>
